<?xml version="1.0" encoding="utf-8"?>
<!-- Generator: Adobe Illustrator 16.0.0, SVG Export Plug-In . SVG Version: 6.00 Build 0)  -->
<!DOCTYPE svg PUBLIC "-//W3C//DTD SVG 1.1//EN" "http://www.w3.org/Graphics/SVG/1.1/DTD/svg11.dtd">
<svg version="1.1" id="Layer_1" xmlns="http://www.w3.org/2000/svg" xmlns:xlink="http://www.w3.org/1999/xlink" x="0px" y="0px"
	 width="57.957px" height="47.758px" viewBox="0 0 57.957 47.758" enable-background="new 0 0 57.957 47.758" xml:space="preserve">
<g>
	<g>
		<path fill="none" stroke="#0099EE" stroke-width="1.0" stroke-miterlimit="10" d="M29.863,6.568
			c-5.926,0.395-7.704,6.518-7.309,12.443c1.777-3.357,5.136-4.938,8.494-5.53l-0.198,1.778c-5.136,1.975-7.11,4.148-8.098,6.716
			c0.197,2.172,0.395,3.95,0.592,5.728c3.951,6.914,2.37,7.111,2.173,8.691c-0.592-1.185-1.382-2.37-1.975-4.147
			c-0.395,4.543-1.976,8.888-0.79,10.863c1.975,3.556,10.468,5.926,12.641,1.976c1.975-3.951,1.58-6.123,2.963-11.456
			c1.58-5.333,3.16-11.457,3.357-16.592C41.912,11.506,35.986,6.963,29.863,6.568C29.323,6.621,30.06,6.568,29.863,6.568z
			 M31.245,13.679c4.938,1.778,9.875,5.925,7.308,13.036c-1.778,4.148-1.58,6.321-4.148,11.851
			c-0.987-1.185-3.16-1.975,3.753-12.048c0.197-3.753,0.197-6.914-7.111-11.061L31.245,13.679z"/>
		<path fill="#4A4A4A" d="M57.091,24.468c0.198-0.198,0.52-0.198,0.717,0c0.198,0.198,0.198,0.519,0,0.717l-4.052,4.049
			c-0.197,0.198-0.518,0.198-0.716,0l-4.052-4.049c-0.198-0.198-0.198-0.519,0-0.717c0.198-0.198,0.518-0.198,0.716,0l3.693,3.692
			L57.091,24.468z"/>
	</g>
	<g>
		<path fill="none" stroke="#0099EE" stroke-width="1.0" stroke-miterlimit="10" d="M12.48,0.643
			C6.358,1.038,0.432,5.383,0.63,11.111c0.197,5.136,1.975,11.259,3.555,16.591c1.58,5.333,0.987,7.506,2.963,11.457
			c1.975,3.95,10.666,1.58,12.641-1.976c1.185-2.173-0.395-6.32-0.79-11.061c-0.79,1.778-1.383,3.161-1.975,4.148
			c-0.198-1.58-1.778-1.975,2.173-8.691c0.197-1.58,0.395-3.555,0.592-5.53c-1.186-2.765-3.16-4.938-8.296-6.913l-0.198-1.778
			c3.161,0.593,6.716,2.37,8.494,5.53C20.184,6.568,19.197,0.247,12.48,0.643z M10.9,7.358l0.198,1.778
			c-7.111,4.148-7.111,7.308-7.111,11.061C10.9,30.073,8.531,31.061,7.74,32.246c-2.568-5.531-2.37-7.703-4.147-11.852
			C1.025,13.284,5.963,9.333,10.9,7.358z"/>
	</g>
</g>
</svg>
