<?xml version="1.0" encoding="utf-8"?>
<!-- Generator: Adobe Illustrator 16.0.0, SVG Export Plug-In . SVG Version: 6.00 Build 0)  -->
<!DOCTYPE svg PUBLIC "-//W3C//DTD SVG 1.1//EN" "http://www.w3.org/Graphics/SVG/1.1/DTD/svg11.dtd">
<svg version="1.1" id="Layer_1" xmlns="http://www.w3.org/2000/svg" xmlns:xlink="http://www.w3.org/1999/xlink" x="0px" y="0px"
	 width="42.093px" height="47.509px" viewBox="0.125 0.125 42.093 47.509" enable-background="new 0.125 0.125 42.093 47.509"
	 xml:space="preserve">
<g>
	<g>
		<path fill="none" stroke="#0099EE" stroke-miterlimit="10" d="M29.863,6.568c-5.926,0.395-7.704,6.518-7.309,12.443
			c1.777-3.357,5.136-4.938,8.494-5.53l-0.198,1.778c-5.136,1.975-7.109,4.148-8.098,6.716c0.197,2.172,0.395,3.95,0.592,5.728
			c3.951,6.914,2.37,7.111,2.173,8.691c-0.592-1.186-1.382-2.371-1.975-4.147c-0.395,4.543-1.976,8.888-0.79,10.862
			c1.975,3.557,10.469,5.927,12.641,1.977c1.976-3.951,1.58-6.123,2.963-11.456c1.58-5.333,3.16-11.457,3.357-16.592
			C41.912,11.506,35.986,6.963,29.863,6.568C29.323,6.621,30.061,6.568,29.863,6.568z M31.245,13.679
			c4.938,1.778,9.875,5.925,7.308,13.036c-1.777,4.148-1.58,6.321-4.148,11.852c-0.986-1.186-3.159-1.976,3.754-12.049
			c0.197-3.752,0.197-6.914-7.111-11.061L31.245,13.679z"/>
	</g>
	<g>
		<path fill="none" stroke="#0099EE" stroke-miterlimit="10" d="M12.48,0.643C6.358,1.038,0.432,5.383,0.63,11.111
			c0.197,5.136,1.975,11.259,3.555,16.591c1.58,5.333,0.987,7.506,2.963,11.457c1.975,3.95,10.666,1.58,12.641-1.976
			c1.185-2.174-0.395-6.32-0.79-11.062c-0.79,1.778-1.383,3.161-1.975,4.147c-0.198-1.58-1.778-1.975,2.173-8.69
			c0.197-1.58,0.395-3.555,0.592-5.53c-1.186-2.765-3.16-4.938-8.296-6.913l-0.198-1.778c3.161,0.593,6.716,2.37,8.494,5.53
			C20.184,6.568,19.197,0.247,12.48,0.643z M10.9,7.358l0.198,1.778c-7.111,4.148-7.111,7.308-7.111,11.062
			C10.9,30.073,8.531,31.061,7.74,32.246c-2.568-5.531-2.37-7.703-4.147-11.852C1.025,13.284,5.963,9.333,10.9,7.358z"/>
	</g>
</g>
</svg>
